<svg height="32" viewBox="0 0 138 32" width="138" xmlns="http://www.w3.org/2000/svg"><g><path d="m15.0784 18.0096-.0256.0896c-.4864 1.4976-1.0752 2.5344-1.6512 3.1744-.3648.4096-.8064.6528-1.3888.7936s-1.3056.1856-2.2016.1856c-1.3696 0-2.4768-.0704-3.0976-.416-.2688-.1536-.4352-.3648-.5504-.7744-.1088-.4096-.1536-1.0112-.1536-1.888v-12.9408c0-.6976.0192-1.2224.0832-1.6192.0512-.3008.128-.5248.2368-.6976.1664-.256.4032-.4032.8-.512s.9408-.16 1.664-.2112l.096-.0064v-1.12h-8.7616v1.12l.096.0064c.672.0512 1.1904.096 1.5744.1792.288.064.5056.1472.6656.2624.2368.1728.3776.416.4544.832s.096.9856.096 1.7664v13.1072c0 .6976-.0192 1.2288-.0832 1.632-.0512.3008-.128.5312-.2368.7104-.1664.2624-.416.4224-.8384.5376-.416.1152-.9856.1792-1.76.2304l-.096.0064v1.12h15.0272l.0192-.0768c.2944-1.024.9856-4.1344 1.184-5.152l.0192-.1024-.1024-.0192z"/><path d="m20.3584 5.6192c1.0112 0 1.7728-.832 1.7728-1.7728 0-.4992-.192-.9536-.5056-1.28s-.7488-.5248-1.2416-.5248h-.032c-.9152 0-1.7408.8-1.7408 1.8432 0 .4608.2112.8896.5312 1.2096.32.3136.7552.5248 1.216.5248z"/><path d="m22.9696 22.3424c-.2304-.0576-.4032-.1344-.5312-.2304-.192-.1472-.3072-.352-.3776-.6912-.0704-.3328-.0896-.8-.0896-1.4208v-11.4304l-.1472.0576c-1.4016.5888-2.9632 1.0112-4.6272 1.2736l-.0896.0128v.9664l.0896.0128c.4928.0704.864.1408 1.1392.224.2048.064.3584.1344.4672.2304.1664.1408.256.32.3072.6208s.064.7168.064 1.28v6.752c0 .5568-.0128.9792-.064 1.3056-.0384.2432-.096.4288-.1856.5696-.128.2112-.3136.3392-.6272.4352s-.7424.1536-1.3184.2048l-.096.0064v1.0496h.1024 7.3152v-1.0432l-.096-.0064c-.5312-.0512-.9344-.1024-1.2352-.1792z"/><path d="m37.1776 22.1824c-.9472-.5824-2.1312-.7424-3.1616-.7424-1.1136 0-2.2656.032-3.4752.032-.7232 0-1.216-.1536-1.5232-.3712s-.4352-.4928-.4352-.768c0-.1856.1216-.448.3072-.6848.1728-.2304.4032-.4416.5952-.5824.5184.096 1.1264.16 1.6448.16 1.4144 0 2.8672-.4288 3.9744-1.312s1.8624-2.2208 1.8624-4c0-1.0816-.3456-2.0736-.8704-2.8032l1.6768.0896.0256-.0128c.5632-.288 1.2096-1.1392 1.5168-1.6832l.032-.0512-.032-.0512-.1664-.2624-.0384-.0576-.0704.0128c-1.2032.192-2.8608.3904-4.416.4544-.9856-.5248-2.0736-.8512-3.168-.8512h-.032c-1.2864 0-2.7712.4416-3.9424 1.3504-1.1712.9152-2.0288 2.304-2.0288 4.192 0 2.208 1.3568 3.7248 2.816 4.3968-.5376.6272-1.5232 1.408-2.752 1.8624l-.0576.0256-.0064.064c-.0064.0448-.0064.0896-.0064.1408 0 .3584.1088.8768.384 1.2992.416.672 1.1968 1.3952 2.304 1.7792-.7936.6272-1.9584 1.5616-2.5792 2.1824-.5056.5056-.8192 1.1584-.8192 1.9072.0384 1.9456 2.0992 4.1024 5.8048 4.1024 2.2016 0 4.2688-.8 5.7792-2.0288 1.5104-1.2224 2.4832-2.8672 2.4832-4.5696.0128-1.632-.6784-2.6432-1.6256-3.2192zm-7.8848-11.3088c.4864-.64 1.1264-.96 1.7792-.96h.032c.896 0 1.632.4352 2.1568 1.1904.5184.7552.8192 1.8304.8192 3.0976 0 1.28-.3136 2.2144-.8 2.8288-.48.6144-1.1264.9152-1.8176.9344-.864 0-1.6-.4288-2.1312-1.1776s-.8448-1.8176-.8448-3.0784c0-1.2416.3264-2.1952.8064-2.8352zm5.9264 18.2144c-.768.6336-1.92 1.0304-3.4624 1.0304-1.1904 0-2.2528-.3328-3.008-.8768-.7552-.5504-1.2096-1.2992-1.2096-2.1632s.6272-1.7664 1.472-2.4768c.2816-.2368.6016-.3968 1.0368-.5056s.9984-.16 1.7472-.1536h.032c1.408 0 2.3424.096 3.1424.416.8768.3456 1.408 1.152 1.408 2.2272-.0064.992-.3904 1.8624-1.1584 2.5024z"/><path d="m54.336 22.3616c-.4224-.1152-.6336-.2688-.768-.5952-.1344-.3328-.1792-.8576-.1728-1.664v-5.7344c0-1.9648-.4736-3.3856-1.2928-4.32s-1.984-1.3568-3.3344-1.3568c-1.728 0-3.3984 1.12-4.5824 2.2528v-10.944l-.1344.0384c-1.2736.3904-3.2384.9152-4.8 1.1456l-.0896.0128v.9728l.096.0064c.5376.0512.9472.096 1.248.1664.224.0512.3904.1152.5056.2048.1728.128.2688.3008.32.608s.0576.7296.0576 1.312v15.6288c0 .5376-.0192.9536-.0704 1.2672-.0384.2368-.1024.416-.1856.5504-.128.2048-.3072.3264-.6144.416-.3008.0896-.7168.1408-1.2672.1856l-.0896.0064-.0384 1.0496h7.1936v-1.0432l-.096-.0064c-.4928-.0512-.864-.1024-1.1456-.1792-.4224-.1216-.6208-.2816-.7424-.608-.1216-.3328-.1472-.8448-.1472-1.632v-7.7312c.896-1.0112 2.1056-1.6064 3.3024-1.6064 1.0752 0 1.8432.3264 2.3488.9664.5056.6464.7616 1.6256.7616 2.9568v5.408c0 .5312-.0192.9408-.0704 1.248-.0832.4672-.224.6976-.5184.8576s-.768.2368-1.4784.3136l-.096.0128v1.0496h.1024 7.0144v-1.0496l-.096-.0064c-.4736-.0448-.8384-.0896-1.12-.16z"/><path d="m64.1152 21.3824c-.416.224-1.1584.512-1.952.512-.4096 0-.8512-.1152-1.2032-.5376s-.6208-1.1776-.6208-2.4704v-8.288h3.4304l.0256-.0128c.2944-.1792.4416-.5248.4416-.8512 0-.224-.0704-.448-.224-.6144l-.032-.032h-3.648v-4.48l-.6016-.0832-2.1952 2.2656v2.2976h-1.408l-.992 1.0304.1792.4928h2.2272v9.4016c0 1.312.288 2.304.8576 2.9696.5696.672 1.408.9984 2.4576.9984.352 0 .8576-.1344 1.4272-.4352l2.3104-1.1904-.3648-1.0176z"/><path d="m77.7408 12.2944c-.6464 0-1.1008-.3072-1.4272-.7232s-.5248-.9344-.6208-1.3248l-.0256-.1088-.6016.1408.0128.1024c.0448.3136.1088.7552.1792 1.152.064.3968.128.7488.1792.9024l.0128.0448.0384.0192c.1344.0704.3392.16.672.2816h.0064.0064c.32.096.768.2048 1.3184.2048.896 0 1.6576-.2816 2.1888-.7552.5312-.4672.8448-1.12.8448-1.8432 0-.7744-.3264-1.3376-.7872-1.7536-.4544-.416-1.0304-.7104-1.5488-.9792-.5184-.2624-.9216-.5056-1.1968-.7872-.2688-.288-.416-.6016-.416-1.056 0-.3328.1024-.6656.32-.9088s.544-.4096 1.024-.4096c.544 0 .8768.2048 1.12.512s.384.7296.4992 1.1392l.0256.096.1024-.0192.384-.064.1024-.0192-.0128-.1088c-.1024-.8256-.1728-1.344-.224-1.8112l-.0064-.0704-.0704-.0192c-.5056-.16-1.0688-.3072-1.6896-.3072-.8704 0-1.5808.2752-2.0672.7296-.4864.448-.7552 1.0624-.7552 1.728 0 .7808.352 1.344.8064 1.76s1.0048.6976 1.4208.928c.4928.2624.9088.5056 1.1968.7936s.448.608.4544 1.0688c0 .4608-.1344.8192-.384 1.0688-.2432.2496-.6016.3968-1.0816.3968z"/><path d="m82.6816 7.456v-.0064z"/><path d="m84.064 12.9536c.832-.0064 1.7152-.6016 2.3104-1.3888l.0512-.0704-.0576-.0704-.3008-.3712-.0896.0832c-.5952.5568-.9728.6912-1.5168.6912-.3456 0-.8192-.1408-1.1968-.4992s-.6784-.928-.6784-1.8112c0-.672.1792-1.1712.4544-1.4976s.6464-.4928 1.0496-.4928c.448 0 .8768.16 1.2544.512.0576.0512.1024.096.1536.128s.1152.0512.1728.0512c.0704 0 .1344-.032.192-.0704.1664-.1152.352-.3456.3584-.608 0-.0832-.0128-.1664-.0512-.2496s-.1024-.1536-.1984-.2304c-.2432-.2048-.6912-.3776-1.2544-.3776h-.0128c-.5184 0-1.3184.2304-2.0288.7744-.9024.6848-1.376 1.6064-1.3696 2.656 0 .7296.256 1.44.7296 1.9712.48.5248 1.1712.8704 2.0288.8704z"/><path d="m89.792 12.7936v-.4544-.1024l-.1024-.0064c-.2112-.0192-.3712-.0384-.4864-.0704-.0896-.0192-.1472-.0512-.1856-.0832-.064-.0448-.096-.1088-.128-.2368-.0256-.128-.032-.3072-.032-.5568v-4.6912l-.1536.064c-.5568.2304-1.1776.4032-1.8432.5056l-.096.0128v.4096.096l.096.0128c.1984.032.3456.0576.448.0896.0768.0256.128.0512.1664.0768.0512.0448.0768.096.1024.2112.0192.1152.0256.2752.0256.4992v2.7072c0 .224-.0064.3904-.0256.512-.0128.0896-.0384.16-.064.2048-.0448.064-.096.1088-.2112.1472s-.288.0576-.5184.0832l-.1024.0128v.4416.1152h.1152z"/><path d="m88.1408 5.5872c.448 0 .7808-.3648.7808-.7808 0-.2176-.0832-.416-.224-.5632s-.3328-.2368-.5504-.2304h-.0128c-.4096 0-.768.352-.768.8064 0 .2048.096.3968.2304.5376.1472.1408.3392.2304.544.2304z"/><path d="m90.8224 12.0704c.4608.5376 1.1328.8832 1.9712.8832.448 0 1.3824-.256 2.2336-1.3056l.0512-.064-.0448-.0704-.1984-.288-.0704-.1088-.096.0896c-.4736.4352-.928.6272-1.44.6272-.4288 0-.8896-.1728-1.2416-.5568-.3392-.3648-.5824-.9344-.6144-1.7472.7552-.0256 1.5168-.0704 2.1248-.1152.32-.0192.5952-.0448.8064-.064s.352-.032.416-.0448c.1344-.0256.2496-.0768.3136-.1792s.0768-.2176.0768-.352c0-1.0752-.9216-2.0928-2.0864-2.0992h-.0128c-.7104 0-1.4464.384-2.0032.9984-.5568.6016-.896 1.44-.896 2.3616.0064.7744.2496 1.4976.7104 2.0352zm1.8816-4.6784h.0128c.3264 0 .576.1344.7616.352.1792.2176.288.512.288.8256v.0256c0 .0384-.0064.064-.0128.0832l-.032.0384c-.0256.0128-.0768.0192-.16.0192-.7104.0256-1.4016.0384-2.0864.0384.1024-.4416.2752-.7808.48-1.0048.224-.256.4928-.3776.7488-.3776z"/><path d="m100.064 11.776c-.0128.096-.0384.1664-.064.2176-.0448.0768-.0896.1152-.1984.1536s-.2624.064-.48.0832l-.1024.0128v.4416.1152h.1152 2.8608v-.4544-.1024l-.1024-.0128c-.192-.0192-.3328-.0384-.4352-.064-.0768-.0192-.128-.0448-.1664-.0704-.0512-.0448-.0832-.096-.1088-.224-.0256-.1216-.032-.3008-.032-.5504v-2.5408c0-.6528-.1664-1.1776-.48-1.5424s-.7744-.5568-1.3248-.5568c-.416 0-.7744.1728-1.152.4096-.256.1728-.4864.3328-.704.4928v-1.0048l-.16.0704c-.5696.256-1.1776.416-1.8048.5312l-.0896.0192v.3968.096l.0896.0192c.1792.032.3136.0576.4096.0896.1472.0512.192.0896.2368.192.0448.1088.0576.3008.0576.6144v2.7072c0 .2176-.0064.3776-.0256.4992-.0128.0896-.032.1472-.064.192-.0384.064-.096.1024-.2176.1408s-.3072.0576-.5568.0832l-.1024.0128v.4416.1152h3.0784v-.4544-.1024l-.1024-.0128c-.192-.0192-.3392-.0384-.4416-.064-.0768-.0192-.1344-.0448-.1664-.0704-.0512-.0448-.0896-.096-.1088-.224-.0256-.1216-.032-.3008-.032-.5504v-3.0272c.3776-.32.8576-.6144 1.3184-.6144.416 0 .672.1344.8384.3648s.2496.5824.2496 1.024v2.1824c-.0064.224-.0128.3968-.032.5248z"/><path d="m103.9488 7.456v-.0064z"/><path d="m105.3312 12.9536c.832-.0064 1.7152-.6016 2.3104-1.3888l.0512-.0704-.0576-.0704-.3008-.3712-.0896.0832c-.5952.5568-.9728.6912-1.5168.6912-.3456 0-.8192-.1408-1.1968-.4992s-.6784-.928-.6784-1.8112c0-.672.1792-1.1712.4544-1.4976s.6464-.4928 1.0496-.4928c.448 0 .8768.16 1.2544.512.0576.0512.1024.096.1536.128s.1152.0512.1728.0512c.0704 0 .1344-.032.192-.0704.1664-.1152.352-.3456.3584-.608 0-.0832-.0128-.1664-.0512-.2496s-.1024-.1536-.1984-.2304c-.2432-.2048-.6912-.3776-1.2544-.3776h-.0128c-.5184 0-1.3184.2304-2.0288.7744-.9024.6848-1.376 1.6064-1.3696 2.656 0 .7296.256 1.44.7296 1.9712.4736.5248 1.1712.8704 2.0288.8704z"/><path d="m108.7232 12.0704c.4608.5376 1.1328.8832 1.9712.8832.448 0 1.3824-.256 2.2336-1.3056l.0512-.064-.0448-.0704-.1984-.288-.0704-.1088-.096.0896c-.4736.4352-.928.6272-1.44.6272-.4288 0-.8896-.1728-1.2416-.5568-.3392-.3648-.5824-.9344-.6144-1.7472.7552-.0256 1.5168-.0704 2.1248-.1152.32-.0192.5952-.0448.8064-.064s.352-.032.416-.0448c.1344-.0256.2496-.0768.3136-.1792s.0768-.2176.0768-.352c0-1.0752-.9216-2.0928-2.0864-2.0992h-.0128c-.7104 0-1.4464.384-2.0032.9984-.5568.6016-.896 1.44-.896 2.3616.0064.7744.2496 1.4976.7104 2.0352zm1.8816-4.6784h.0128c.3264 0 .576.1344.7616.352.1792.2176.288.512.288.8256v.0256c0 .0384-.0064.064-.0128.0832l-.032.0384c-.0256.0128-.0768.0192-.16.0192-.7104.0256-1.4016.0384-2.0864.0384.1024-.4416.2752-.7808.48-1.0048.2176-.256.4864-.3776.7488-.3776z"/><path d="m119.2576 12.9792c.96 0 1.8432-.48 2.7712-1.6768.416.4352.9088.9856 1.0496 1.152.0576.0576.1408.1152.2432.1728.32.1664.8704.352 1.4336.4032l.064.0064.128-.1664.0448-.0576-.032-.064c-.3968-.7616-1.5168-2.016-2.0992-2.592.4352-.6592.7424-1.184 1.0944-1.6704.2176-.32.3648-.5312.5504-.6656.192-.1344.4416-.2176.8896-.2688l.1024-.0128v-.1024-.3712-.1152h-3.2384v.48.096l.096.0128c.3264.0384.5504.0896.672.1472.064.032.096.0576.1152.0896s.032.0576.032.1152c0 .0832-.0384.2112-.1088.3904-.2304.5248-.4352.9408-.704 1.376-.7552-.768-1.5552-1.4656-2.0032-1.8496.4416-.3008.7232-.5312.9536-.7232.2944-.2496.5952-.6656.5888-1.2416 0-.5568-.2368-1.0432-.608-1.3824-.3776-.3392-.8896-.544-1.4464-.544-.608 0-1.1776.2368-1.5872.6336-.416.3904-.6784.9408-.6784 1.5616 0 .7104.3392 1.28.8832 1.8112-.512.3648-.9728.6848-1.312 1.056-.3648.3968-.6016.8704-.5952 1.5104 0 .6016.2432 1.2224.704 1.696.4544.4736 1.1392.7936 1.9968.7936zm-.2304-8.0704c.1728-.2048.4032-.32.672-.32h.0128c.2816 0 .5248.1344.6976.3648s.2816.5504.2816.9024c0 .64-.3008 1.1008-.864 1.5424-.3584-.2752-.6272-.5248-.8064-.768-.192-.2624-.2816-.5184-.2816-.8384.0128-.3712.1152-.672.288-.8832zm-.0512 3.4624c1.12.9152 1.9264 1.6768 2.592 2.4128-.4288.5568-1.1648 1.0816-1.9584 1.0816h-.0128c-.4032 0-.832-.1408-1.152-.4288-.3264-.288-.5504-.7232-.5504-1.3248 0-.5888.288-1.152 1.0816-1.7408z"/><path d="m83.616 23.072v-.096l-.1024-.0128c-.4288-.0448-.6528-.096-.8256-.256-.1728-.1536-.3264-.4544-.5248-1.0176-.8384-2.272-1.7216-4.7872-2.5408-7.0336l-.0384-.096-.5632.16-2.7456 6.944c-.224.5824-.3776.8768-.5568 1.0368-.1728.1536-.4032.2048-.8256.2624l-.096.0128v.4672.1152h3.0912v-.48-.1024l-.1024-.0128c-.3456-.0384-.5824-.0768-.704-.1344-.064-.032-.096-.0576-.1216-.0896-.0192-.032-.032-.0768-.032-.1408 0-.1152.0448-.3008.128-.5504.16-.512.352-1.0432.5504-1.6064h2.6432c.2816.7744.5312 1.4528.6976 1.9456.0384.1216.064.2176.064.2816 0 .0448-.0064.0704-.0256.096-.0192.032-.0768.0704-.1984.1088s-.2944.064-.5248.096l-.096.0128v.4672.1152h.1152 3.3344zm-3.6224-3.424h-2.0992c.3584-.9536.7168-1.9584 1.088-2.944z"/><path d="m87.0144 17.44c-.1856 0-.448.0704-.6976.224l-1.0432.5888v-.9984l-.1536.0576c-.6144.2368-1.344.4544-1.888.544l-.096.0128v.4096.096l.096.0128c.2048.0256.3584.0448.4672.0768.0832.0192.1344.0448.1728.0704.0512.0384.0832.0896.1024.2048s.0256.288.0256.5248v5.9456c0 .2112-.0064.3776-.032.4928-.0192.0896-.0384.1536-.0704.192-.0448.064-.1024.1088-.2304.1472-.1216.0384-.2944.0576-.5312.0832l-.1024.0064v.4544.1152h3.328v-.4672-.1024l-.1024-.0064c-.2496-.0256-.4416-.0448-.5824-.0768-.1024-.0256-.1792-.0512-.2304-.0896-.0768-.0512-.1152-.1216-.1472-.2624s-.0384-.3392-.0384-.6208v-1.5488c.1984.0832.4736.16.7936.1728h.0128.0128c.8768-.16 1.7152-.5696 2.336-1.1904.6208-.6272 1.0304-1.472 1.0304-2.496 0-.6656-.224-1.3056-.6464-1.7856-.4096-.4736-1.024-.7872-1.7856-.7872zm-.6208 5.4016c-.4096 0-.8576-.1856-1.1264-.4416v-3.4432c.3392-.256.8448-.512 1.2032-.512.4416 0 .8512.1792 1.152.5312s.4992.8704.4992 1.5552c0 .7168-.1792 1.2992-.4864 1.696-.3008.3968-.7232.6144-1.2416.6144z"/><path d="m93.4976 17.44c-.1856 0-.448.0704-.6976.224l-1.0432.5888v-.9984l-.1536.0576c-.6144.2368-1.344.4544-1.888.544l-.096.0128v.4096.096l.096.0128c.2048.0256.3584.0448.4672.0768.0832.0192.1344.0448.1728.0704.0512.0384.0832.0896.1024.2048s.0256.288.0256.5248v5.9456c0 .2112-.0064.3776-.032.4928-.0192.0896-.0384.1536-.0704.192-.0448.064-.1024.1088-.2304.1472-.1216.0384-.2944.0576-.5312.0832l-.1024.0064v.4544.1152h3.328v-.4672-.1024l-.1024-.0064c-.2496-.0256-.4416-.0448-.5824-.0768-.1024-.0256-.1792-.0512-.2304-.0896-.0768-.0512-.1152-.1216-.1472-.2624s-.0384-.3392-.0384-.6208v-1.5488c.1984.0832.4736.16.7936.1728h.0128.0128c.8768-.16 1.7152-.5696 2.336-1.1904.6208-.6272 1.0304-1.472 1.0304-2.496 0-.6656-.224-1.3056-.6464-1.7856-.4096-.4736-1.024-.7872-1.7856-.7872zm-.6208 5.4016c-.4096 0-.8576-.1856-1.1264-.4416v-3.4432c.3392-.256.8448-.512 1.2032-.512.4416 0 .8512.1792 1.152.5312s.4992.8704.4992 1.5552c0 .7168-.1792 1.2992-.4864 1.696-.3008.3968-.7232.6144-1.2416.6144z"/><path d="m98.6112 22.9184c-.0896-.0192-.1472-.0512-.192-.0832-.064-.0448-.1024-.1024-.128-.2304-.0256-.1216-.0384-.2944-.0384-.5376v-8.1472l-.1472.0512c-.4416.1536-1.2544.3776-1.92.4544l-.1024.0128v.416.1024l.1024.0128c.2048.0192.3648.0384.48.064.0832.0192.1408.0448.1792.0704.0576.0384.0896.0896.1152.2112s.032.2944.032.544v6.2208c0 .2112-.0064.3776-.032.4928-.0192.0896-.0384.1536-.0704.1984-.0448.064-.1024.1088-.224.1408-.1216.0384-.288.0576-.5248.0768l-.1024.0128v.4416.1152h.1152 3.0464v-.4544-.1024l-.1024-.0064c-.2112-.0256-.3712-.0448-.4864-.0768z"/><path d="m100.7936 14.7712c-.4096 0-.768.352-.768.8064 0 .2048.096.3968.2304.5376.1408.1408.3328.2304.5376.2304.448 0 .7808-.3648.7808-.7808 0-.2176-.0832-.416-.224-.5632s-.3328-.2304-.5504-.2304z"/><path d="m101.856 22.9184c-.0896-.0192-.1472-.0512-.1856-.0832-.064-.0448-.096-.1088-.128-.2368-.0256-.128-.032-.3072-.032-.5568v-4.6912l-.1536.064c-.5568.2304-1.1776.4032-1.8432.5056l-.096.0128v.4096.096l.096.0128c.1984.032.3456.0576.448.0896.0768.0256.128.0512.1664.0768.0512.0448.0768.096.1024.2112.0192.1152.0256.2752.0256.4992v2.7072c0 .224-.0064.3904-.0256.512-.0128.0896-.0384.16-.064.2048-.0448.064-.096.1088-.2112.1472s-.288.0576-.5184.0832l-.1024.0128v.4416.1152h.1152 3.008v-.448-.1024l-.1024-.0064c-.224-.0256-.384-.0448-.4992-.0768z"/><path d="m107.4048 21.8176-.0896.0832c-.5952.5568-.9728.6912-1.5168.6912-.3456 0-.8192-.1408-1.1968-.4992s-.6784-.928-.6784-1.8112c0-.672.1792-1.1712.4544-1.4976s.6464-.4928 1.0496-.4928c.448 0 .8768.16 1.2544.512.0576.0512.1024.096.1536.128s.1152.0512.1728.0512c.0704 0 .1344-.032.192-.0704.1664-.1152.352-.3456.3584-.608 0-.0832-.0128-.1664-.0512-.2496s-.1024-.1536-.1984-.2304c-.2432-.2048-.6912-.3776-1.2544-.3776h-.0128c-.5184 0-1.3184.2304-2.0288.7744-.9024.6848-1.376 1.6064-1.3696 2.656 0 .7296.256 1.44.7296 1.9712s1.1712.8768 2.0288.8768c.832-.0064 1.7152-.6016 2.3104-1.3888l.0512-.0704-.0576-.0704z"/><path d="m113.1072 22.4896c-.1216.0704-.2944.1408-.416.1408-.0768 0-.1536-.032-.224-.128s-.128-.2688-.128-.5504v-2.432c0-.3584-.032-.672-.128-.96-.096-.2816-.256-.5376-.4992-.7424-.3136-.256-.736-.3776-1.152-.3776h-.0128-.0128c-.7744.1792-1.6192.6656-1.9968.9408-.128.096-.2368.1792-.3136.2752-.0832.096-.1344.2112-.1344.3392 0 .192.1024.3584.2304.4736s.288.192.448.192c.1088 0 .2176-.0256.3008-.096.0896-.064.1472-.1664.1856-.288.1152-.3904.224-.6656.3648-.8064l.0064-.0064.0064-.0064c.1088-.128.2688-.2112.4928-.2112.3072 0 .544.1152.7168.3392s.2752.5696.2752 1.0368v.1664c-.1408.1024-.4224.2368-.7616.3712-.3712.1472-.8064.3008-1.2032.4352-.3712.128-.6592.3008-.8512.5376-.192.2304-.288.5248-.288.8576 0 .4416.1728.8704.4672 1.1904s.7232.5248 1.2224.5248c.2432 0 .5056-.1344.7872-.3072.2368-.1408.48-.3136.704-.4736.064.1792.1472.3456.3008.4928.1728.1536.4544.2752.6912.2816h.032l.0256-.0128 1.1968-.7168-.2112-.5568zm-3.0208-1.536c.2304-.1088.7104-.32 1.024-.4736v1.8048c-.2304.2176-.6592.416-.9408.4096-.1728 0-.384-.0704-.544-.2176s-.2752-.3584-.2752-.672c0-.224.064-.3648.1792-.4992.1152-.1216.3008-.2368.5568-.352z"/><path d="m116.6144 22.5408c-.16.0832-.448.1984-.7488.1984-.1536 0-.3008-.0384-.4288-.192s-.2368-.4352-.2368-.9472v-3.2576h1.3248l.0256-.0192c.1408-.0896.2112-.2496.2112-.4032 0-.1024-.032-.2112-.1088-.2944l-.032-.0384h-1.4208v-1.7792l-.2816-.0384-.0576-.0064-.928.9536v.8832h-.48-.0448l-.448.4672.0768.2112.0256.0768h.8768v3.6992c0 .5376.1152.9536.3584 1.2352.2432.288.6016.4288 1.0432.4288.16 0 .3648-.0576.6016-.1856l.9792-.5056-.1984-.544z"/><path d="m119.52 22.9184c-.0896-.0192-.1472-.0512-.1856-.0832-.064-.0448-.096-.1088-.128-.2368-.0256-.128-.032-.3072-.032-.5568v-4.6912l-.1536.064c-.5568.2304-1.1776.4032-1.8432.5056l-.096.0128v.4096.096l.096.0128c.1984.032.3456.0576.448.0896.0768.0256.128.0512.1664.0768.0512.0448.0768.096.1024.2112.0192.1152.0256.2752.0256.4992v2.7072c0 .224-.0064.3904-.0256.512-.0128.0896-.0384.16-.064.2048-.0448.064-.096.1088-.2112.1472s-.288.0576-.5184.0832l-.1024.0128v.4416.1152h.1152 3.008v-.448-.1024l-.1024-.0064c-.224-.0256-.384-.0448-.4992-.0768z"/><path d="m118.4512 14.7712c-.4096 0-.768.352-.768.8064 0 .2048.096.3968.2304.5376.1408.1408.3328.2304.5376.2304.448 0 .7808-.3648.7808-.7808 0-.2176-.0832-.416-.224-.5632s-.3328-.2304-.5504-.2304z"/><path d="m123.3088 17.44h-.0128c-.6272 0-1.3696.256-1.9648.7936s-1.0304 1.3632-1.0304 2.4768c0 .7488.2816 1.4976.7936 2.0672.512.5632 1.2672.9408 2.2016.9408.6784 0 1.4208-.2624 1.9904-.7936.576-.5376.9728-1.3504.9728-2.432 0-.8384-.3136-1.6-.8384-2.1504-.5312-.5632-1.2672-.9024-2.112-.9024zm1.088 5.1392c-.2496.3456-.576.4736-.96.4736-.4992 0-.9152-.2752-1.216-.768-.3008-.4864-.4736-1.1904-.4736-2.0032 0-.7232.1728-1.28.4352-1.6448s.6016-.544.9536-.544h.0128c.5376 0 .9408.2816 1.2224.7616.288.48.4352 1.152.4352 1.9008.0064.9024-.16 1.4784-.4096 1.824z"/><path d="m132.6784 22.9248c-.0768-.0192-.128-.0448-.1664-.0704-.0512-.0448-.0832-.096-.1088-.224-.0256-.1216-.032-.3008-.032-.5504v-2.5408c0-.6528-.1664-1.1776-.48-1.5424s-.7744-.5568-1.3248-.5568c-.416 0-.7744.1728-1.152.4096-.256.1728-.4864.3328-.704.4928v-1.0048l-.16.0704c-.5696.256-1.1776.416-1.8048.5312l-.0896.0192v.3968.096l.0896.0192c.1792.032.3136.0576.4096.0896.1472.0512.192.0896.2368.192.0448.1088.0576.3008.0576.6144v2.7072c0 .2176-.0064.3776-.0256.4992-.0128.0896-.032.1472-.064.192-.0384.064-.096.1024-.2176.1408s-.3072.0576-.5568.0832l-.1024.0128v.4416.1152h3.0784v-.4544-.1024l-.1024-.0128c-.192-.0192-.3392-.0384-.4416-.064-.0768-.0192-.1344-.0448-.1664-.0704-.0512-.0448-.0896-.096-.1088-.224-.0256-.1216-.032-.3008-.032-.5504v-3.0272c.3776-.32.8576-.6144 1.3184-.6144.416 0 .672.1344.8384.3648s.2496.5824.2496 1.024v2.1824c0 .224-.0064.3968-.0256.5248-.0128.096-.0384.1664-.064.2176-.0448.0768-.0896.1152-.1984.1536s-.2624.064-.48.0832l-.1024.0128v.4416.1152h.1152 2.8608v-.4544-.1024l-.1024-.0128c-.192-.0192-.3392-.0384-.4416-.064z"/><path d="m137.088 20.6272c-.3072-.2944-.736-.5184-1.2416-.7232-.288-.1216-.5504-.256-.7424-.4224-.1856-.1664-.2944-.352-.2944-.6016 0-.2368.0768-.4352.2048-.576s.3072-.2176.5376-.2176c.2944 0 .5312.1152.7424.32.2112.2112.3776.5184.5056.9024l.032.1024.1024-.0256.3264-.0896.0896-.0256-.0064-.0896c-.0128-.1728-.0576-.448-.1088-.7232-.0576-.2752-.1216-.544-.1856-.704l-.0192-.0384-.0384-.0192c-.2752-.1216-.6464-.2496-1.2032-.2496-.6272 0-1.1584.2048-1.5296.5376s-.5824.7936-.5824 1.2864c0 .5312.2368.928.5632 1.2224s.7488.4992 1.1456.6848c.3264.1472.5696.2944.7296.4608s.2432.352.2432.6208c0 .4992-.3904.8064-.8192.8064-.3584 0-.672-.1728-.9344-.4544-.256-.2816-.4544-.672-.5632-1.0816l-.0256-.096-.5504.0832v.096c0 .2496.032.5888.0768.9024.0256.1536.0448.3008.0768.4224.0256.1216.0512.2112.0832.2816l.0128.0192.0192.0128c.128.1152.3456.2304.6208.32s.6016.1536.9536.1536c.5504 0 1.1136-.16 1.5488-.48s.736-.8128.736-1.4464c-.0128-.4928-.1984-.8704-.5056-1.1712z"/><path d="m69.5808.1088h1v26.88h-1z"/></g></svg>